<svg width="25" height="25" viewBox="0 0 25 25" fill="none" xmlns="http://www.w3.org/2000/svg">
<path d="M9.08789 1.11328C11.1208 -0.37077 13.8802 -0.370833 15.9131 1.11328L22.8623 6.25098C24.1956 7.22007 24.9893 8.76481 25 10.4131V19.7129C24.925 22.7045 22.4419 25.0708 19.4502 25.001H5.5498C2.5582 25.0707 0.0750292 22.7044 0 19.7129V10.4258C0.00762925 8.77032 0.807184 7.21865 2.15039 6.25098L9.08789 1.11328ZM14.7998 2.62598C13.4297 1.62547 11.5703 1.62545 10.2002 2.62598L3.2627 7.75098C2.39792 8.36849 1.88167 9.36318 1.875 10.4258V19.7129C1.95628 21.6659 3.59612 23.1893 5.5498 23.126H19.4502C21.4065 23.1963 23.0504 21.6691 23.125 19.7129V10.4131C23.1185 9.35731 22.6013 8.36946 21.7373 7.7627L14.7998 2.62598ZM18.125 17.1885C18.6428 17.1885 19.0625 17.6082 19.0625 18.126C19.0624 18.6436 18.6427 19.0635 18.125 19.0635H6.875C6.35733 19.0634 5.93763 18.6436 5.9375 18.126C5.9375 17.6082 6.35725 17.1885 6.875 17.1885H18.125Z" fill="black"/>
</svg>
