<svg width="25" height="25" viewBox="0 0 25 25" fill="none" xmlns="http://www.w3.org/2000/svg">
<path fill-rule="evenodd" clip-rule="evenodd" d="M4.7619 0H20.2381C22.868 0 25 2.13198 25 4.7619V20.2381C25 22.868 22.868 25 20.2381 25H4.7619C2.13198 25 0 22.868 0 20.2381V4.7619C0 2.13198 2.13198 0 4.7619 0ZM20.2381 23.2143C21.8818 23.2143 23.2143 21.8818 23.2143 20.2381V4.7619C23.2143 3.1182 21.8818 1.78571 20.2381 1.78571H4.7619C3.1182 1.78571 1.78571 3.1182 1.78571 4.7619V20.2381C1.78571 21.8818 3.1182 23.2143 4.7619 23.2143H20.2381Z" fill="#EEEEEE"/>
<path d="M19.0476 8.63095H15.4762C14.9831 8.63095 14.5833 9.0307 14.5833 9.52381C14.5833 10.0169 14.9831 10.4167 15.4762 10.4167H16.5833L12.3452 14.6548L9.96429 12.2738C9.33247 11.6442 8.31039 11.6442 7.67857 12.2738L4.57143 15.2857C4.22327 15.6343 4.22327 16.199 4.57143 16.5476C4.73796 16.7162 4.9654 16.8106 5.20238 16.8095C5.43963 16.812 5.66759 16.7174 5.83333 16.5476L8.77381 13.6071L11.1548 15.9881C11.7907 16.6191 12.8165 16.6191 13.4524 15.9881L18.1071 11.3333V13.0952C18.1071 13.5883 18.5069 13.9881 19 13.9881C19.4931 13.9881 19.8929 13.5883 19.8929 13.0952V9.52381C19.8877 9.05107 19.5194 8.66203 19.0476 8.63095Z" fill="#EEEEEE"/>
</svg>
